<svg width="391" height="405" viewBox="0 0 391 405" fill="none" xmlns="http://www.w3.org/2000/svg">
<line x1="7.5" x2="7.5" y2="365" stroke="black" stroke-width="15"/>
<line x1="13" y1="357.5" x2="378" y2="357.5" stroke="black" stroke-width="15"/>
<line x1="383.5" x2="383.5" y2="365" stroke="black" stroke-width="15"/>
<line y1="7.5" x2="390.012" y2="7.5" stroke="black" stroke-width="15"/>
<path d="M74.847 263C72.577 263 71.442 261.865 71.442 259.595C71.442 257.325 72.577 256.19 74.847 256.19H90.737C93.007 256.19 94.142 255.055 94.142 252.785V114.315C94.142 112.045 93.007 110.91 90.737 110.91H74.847C72.577 110.91 71.442 109.775 71.442 107.505C71.442 105.235 72.577 104.1 74.847 104.1H124.787C127.057 104.1 128.192 105.235 128.192 107.505C128.192 109.775 127.057 110.91 124.787 110.91H104.357C102.087 110.91 100.952 112.045 100.952 114.315V252.785C100.952 255.055 102.087 256.19 104.357 256.19H176.997C179.267 256.19 180.402 255.055 180.402 252.785V227.815C180.402 225.545 181.537 224.41 183.807 224.41C186.077 224.41 187.212 225.545 187.212 227.815V259.595C187.212 261.865 186.077 263 183.807 263H74.847ZM294.611 178.102C316.555 182.339 327.526 196.867 327.526 221.686C327.526 233.793 323.743 243.705 316.176 251.423C308.761 259.141 298.168 263 284.396 263H206.081C203.811 263 202.676 261.865 202.676 259.595C202.676 257.325 203.811 256.19 206.081 256.19H221.971C224.241 256.19 225.376 255.055 225.376 252.785V114.315C225.376 112.045 224.241 110.91 221.971 110.91H206.081C203.811 110.91 202.676 109.775 202.676 107.505C202.676 105.235 203.811 104.1 206.081 104.1H275.316C287.423 104.1 297.26 107.883 304.826 115.45C312.393 123.017 316.176 132.475 316.176 143.825C316.176 159.866 308.988 171.292 294.611 178.102ZM232.186 173.335C232.186 175.605 233.321 176.74 235.591 176.74H276.451C285.985 176.74 293.855 173.562 300.059 167.206C306.264 160.699 309.366 152.754 309.366 143.371C309.366 133.988 306.264 126.27 300.059 120.217C294.006 114.012 285.758 110.91 275.316 110.91H235.591C233.321 110.91 232.186 112.045 232.186 114.315V173.335ZM232.186 252.785C232.186 255.055 233.321 256.19 235.591 256.19H284.396C295.746 256.19 304.599 253.012 310.955 246.656C317.463 240.149 320.716 231.22 320.716 219.87C320.716 208.52 317.463 199.667 310.955 193.311C304.599 186.804 295.746 183.55 284.396 183.55H235.591C233.321 183.55 232.186 184.685 232.186 186.955V252.785Z" fill="black"/>
<path d="M7.19906 401.36H11.6791V404H3.77906V389.96H7.19906V401.36ZM44.3303 392.84V404H40.9103V402.48C40.5636 402.973 40.0903 403.373 39.4903 403.68C38.9036 403.973 38.2503 404.12 37.5303 404.12C36.677 404.12 35.9236 403.933 35.2703 403.56C34.617 403.173 34.1103 402.62 33.7503 401.9C33.3903 401.18 33.2103 400.333 33.2103 399.36V392.84H36.6103V398.9C36.6103 399.647 36.8036 400.227 37.1903 400.64C37.577 401.053 38.097 401.26 38.7503 401.26C39.417 401.26 39.9436 401.053 40.3303 400.64C40.717 400.227 40.9103 399.647 40.9103 398.9V392.84H44.3303ZM66.1069 398.4C66.1069 397.253 66.3202 396.247 66.7469 395.38C67.1869 394.513 67.7802 393.847 68.5269 393.38C69.2735 392.913 70.1069 392.68 71.0269 392.68C71.8135 392.68 72.5002 392.84 73.0869 393.16C73.6869 393.48 74.1469 393.9 74.4669 394.42V392.84H77.8869V404H74.4669V402.42C74.1335 402.94 73.6669 403.36 73.0669 403.68C72.4802 404 71.7935 404.16 71.0069 404.16C70.1002 404.16 69.2735 403.927 68.5269 403.46C67.7802 402.98 67.1869 402.307 66.7469 401.44C66.3202 400.56 66.1069 399.547 66.1069 398.4ZM74.4669 398.42C74.4669 397.567 74.2269 396.893 73.7469 396.4C73.2802 395.907 72.7069 395.66 72.0269 395.66C71.3469 395.66 70.7669 395.907 70.2869 396.4C69.8202 396.88 69.5869 397.547 69.5869 398.4C69.5869 399.253 69.8202 399.933 70.2869 400.44C70.7669 400.933 71.3469 401.18 72.0269 401.18C72.7069 401.18 73.2802 400.933 73.7469 400.44C74.2269 399.947 74.4669 399.273 74.4669 398.42ZM107.161 392.72C108.468 392.72 109.508 393.147 110.281 394C111.068 394.84 111.461 396 111.461 397.48V404H108.061V397.94C108.061 397.193 107.868 396.613 107.481 396.2C107.094 395.787 106.574 395.58 105.921 395.58C105.268 395.58 104.748 395.787 104.361 396.2C103.974 396.613 103.781 397.193 103.781 397.94V404H100.361V392.84H103.781V394.32C104.128 393.827 104.594 393.44 105.181 393.16C105.768 392.867 106.428 392.72 107.161 392.72ZM133.158 398.4C133.158 397.253 133.371 396.247 133.798 395.38C134.238 394.513 134.831 393.847 135.578 393.38C136.324 392.913 137.158 392.68 138.078 392.68C138.864 392.68 139.551 392.84 140.138 393.16C140.738 393.48 141.198 393.9 141.518 394.42V392.84H144.938V404H141.518V402.42C141.184 402.94 140.718 403.36 140.118 403.68C139.531 404 138.844 404.16 138.058 404.16C137.151 404.16 136.324 403.927 135.578 403.46C134.831 402.98 134.238 402.307 133.798 401.44C133.371 400.56 133.158 399.547 133.158 398.4ZM141.518 398.42C141.518 397.567 141.278 396.893 140.798 396.4C140.331 395.907 139.758 395.66 139.078 395.66C138.398 395.66 137.818 395.907 137.338 396.4C136.871 396.88 136.638 397.547 136.638 398.4C136.638 399.253 136.871 399.933 137.338 400.44C137.818 400.933 138.398 401.18 139.078 401.18C139.758 401.18 140.331 400.933 140.798 400.44C141.278 399.947 141.518 399.273 141.518 398.42ZM200.15 396.8C200.963 396.973 201.617 397.38 202.11 398.02C202.603 398.647 202.85 399.367 202.85 400.18C202.85 401.353 202.437 402.287 201.61 402.98C200.797 403.66 199.657 404 198.19 404H191.65V389.96H197.97C199.397 389.96 200.51 390.287 201.31 390.94C202.123 391.593 202.53 392.48 202.53 393.6C202.53 394.427 202.31 395.113 201.87 395.66C201.443 396.207 200.87 396.587 200.15 396.8ZM195.07 395.64H197.31C197.87 395.64 198.297 395.52 198.59 395.28C198.897 395.027 199.05 394.66 199.05 394.18C199.05 393.7 198.897 393.333 198.59 393.08C198.297 392.827 197.87 392.7 197.31 392.7H195.07V395.64ZM197.59 401.24C198.163 401.24 198.603 401.113 198.91 400.86C199.23 400.593 199.39 400.213 199.39 399.72C199.39 399.227 199.223 398.84 198.89 398.56C198.57 398.28 198.123 398.14 197.55 398.14H195.07V401.24H197.59ZM224.154 398.4C224.154 397.253 224.367 396.247 224.794 395.38C225.234 394.513 225.827 393.847 226.574 393.38C227.32 392.913 228.154 392.68 229.074 392.68C229.86 392.68 230.547 392.84 231.134 393.16C231.734 393.48 232.194 393.9 232.514 394.42V392.84H235.934V404H232.514V402.42C232.18 402.94 231.714 403.36 231.114 403.68C230.527 404 229.84 404.16 229.054 404.16C228.147 404.16 227.32 403.927 226.574 403.46C225.827 402.98 225.234 402.307 224.794 401.44C224.367 400.56 224.154 399.547 224.154 398.4ZM232.514 398.42C232.514 397.567 232.274 396.893 231.794 396.4C231.327 395.907 230.754 395.66 230.074 395.66C229.394 395.66 228.814 395.907 228.334 396.4C227.867 396.88 227.634 397.547 227.634 398.4C227.634 399.253 227.867 399.933 228.334 400.44C228.814 400.933 229.394 401.18 230.074 401.18C230.754 401.18 231.327 400.933 231.794 400.44C232.274 399.947 232.514 399.273 232.514 398.42ZM261.828 394.7C262.228 394.087 262.728 393.607 263.328 393.26C263.928 392.9 264.595 392.72 265.328 392.72V396.34H264.388C263.535 396.34 262.895 396.527 262.468 396.9C262.041 397.26 261.828 397.9 261.828 398.82V404H258.408V392.84H261.828V394.7ZM290.383 394.7C290.783 394.087 291.283 393.607 291.883 393.26C292.483 392.9 293.149 392.72 293.883 392.72V396.34H292.943C292.089 396.34 291.449 396.527 291.023 396.9C290.596 397.26 290.383 397.9 290.383 398.82V404H286.963V392.84H290.383V394.7ZM326.037 398.24C326.037 398.56 326.017 398.893 325.977 399.24H318.237C318.291 399.933 318.511 400.467 318.897 400.84C319.297 401.2 319.784 401.38 320.357 401.38C321.211 401.38 321.804 401.02 322.137 400.3H325.777C325.591 401.033 325.251 401.693 324.757 402.28C324.277 402.867 323.671 403.327 322.937 403.66C322.204 403.993 321.384 404.16 320.477 404.16C319.384 404.16 318.411 403.927 317.557 403.46C316.704 402.993 316.037 402.327 315.557 401.46C315.077 400.593 314.837 399.58 314.837 398.42C314.837 397.26 315.071 396.247 315.537 395.38C316.017 394.513 316.684 393.847 317.537 393.38C318.391 392.913 319.371 392.68 320.477 392.68C321.557 392.68 322.517 392.907 323.357 393.36C324.197 393.813 324.851 394.46 325.317 395.3C325.797 396.14 326.037 397.12 326.037 398.24ZM322.537 397.34C322.537 396.753 322.337 396.287 321.937 395.94C321.537 395.593 321.037 395.42 320.437 395.42C319.864 395.42 319.377 395.587 318.977 395.92C318.591 396.253 318.351 396.727 318.257 397.34H322.537ZM354.062 401.1V404H352.322C351.082 404 350.115 403.7 349.422 403.1C348.728 402.487 348.382 401.493 348.382 400.12V395.68H347.022V392.84H348.382V390.12H351.802V392.84H354.042V395.68H351.802V400.16C351.802 400.493 351.882 400.733 352.042 400.88C352.202 401.027 352.468 401.1 352.842 401.1H354.062ZM381.047 404.16C379.953 404.16 378.967 403.927 378.087 403.46C377.22 402.993 376.533 402.327 376.027 401.46C375.533 400.593 375.287 399.58 375.287 398.42C375.287 397.273 375.54 396.267 376.047 395.4C376.553 394.52 377.247 393.847 378.127 393.38C379.007 392.913 379.993 392.68 381.087 392.68C382.18 392.68 383.167 392.913 384.047 393.38C384.927 393.847 385.62 394.52 386.127 395.4C386.633 396.267 386.887 397.273 386.887 398.42C386.887 399.567 386.627 400.58 386.107 401.46C385.6 402.327 384.9 402.993 384.007 403.46C383.127 403.927 382.14 404.16 381.047 404.16ZM381.047 401.2C381.7 401.2 382.253 400.96 382.707 400.48C383.173 400 383.407 399.313 383.407 398.42C383.407 397.527 383.18 396.84 382.727 396.36C382.287 395.88 381.74 395.64 381.087 395.64C380.42 395.64 379.867 395.88 379.427 396.36C378.987 396.827 378.767 397.513 378.767 398.42C378.767 399.313 378.98 400 379.407 400.48C379.847 400.96 380.393 401.2 381.047 401.2Z" fill="black"/>
</svg>
