<svg width="633" height="366" viewBox="0 0 633 366" fill="none" xmlns="http://www.w3.org/2000/svg">
<line x1="7.5" x2="7.5" y2="365" stroke="black" stroke-width="15"/>
<line y1="357.5" x2="100" y2="357.5" stroke="black" stroke-width="15"/>
<line x1="533" y1="357.5" x2="633" y2="357.5" stroke="black" stroke-width="15"/>
<line x1="625.5" x2="625.5" y2="365" stroke="black" stroke-width="15"/>
<line y1="7.5" x2="624.01" y2="7.5" stroke="black" stroke-width="15"/>
<path d="M185.847 263C183.577 263 182.442 261.865 182.442 259.595C182.442 257.325 183.577 256.19 185.847 256.19H201.737C204.007 256.19 205.142 255.055 205.142 252.785V114.315C205.142 112.045 204.007 110.91 201.737 110.91H185.847C183.577 110.91 182.442 109.775 182.442 107.505C182.442 105.235 183.577 104.1 185.847 104.1H235.787C238.057 104.1 239.192 105.235 239.192 107.505C239.192 109.775 238.057 110.91 235.787 110.91H215.357C213.087 110.91 211.952 112.045 211.952 114.315V252.785C211.952 255.055 213.087 256.19 215.357 256.19H287.997C290.267 256.19 291.402 255.055 291.402 252.785V227.815C291.402 225.545 292.537 224.41 294.807 224.41C297.077 224.41 298.212 225.545 298.212 227.815V259.595C298.212 261.865 297.077 263 294.807 263H185.847ZM405.611 178.102C427.555 182.339 438.526 196.867 438.526 221.686C438.526 233.793 434.743 243.705 427.176 251.423C419.761 259.141 409.168 263 395.396 263H317.081C314.811 263 313.676 261.865 313.676 259.595C313.676 257.325 314.811 256.19 317.081 256.19H332.971C335.241 256.19 336.376 255.055 336.376 252.785V114.315C336.376 112.045 335.241 110.91 332.971 110.91H317.081C314.811 110.91 313.676 109.775 313.676 107.505C313.676 105.235 314.811 104.1 317.081 104.1H386.316C398.423 104.1 408.26 107.883 415.826 115.45C423.393 123.017 427.176 132.475 427.176 143.825C427.176 159.866 419.988 171.292 405.611 178.102ZM343.186 173.335C343.186 175.605 344.321 176.74 346.591 176.74H387.451C396.985 176.74 404.855 173.562 411.059 167.206C417.264 160.699 420.366 152.754 420.366 143.371C420.366 133.988 417.264 126.27 411.059 120.217C405.006 114.012 396.758 110.91 386.316 110.91H346.591C344.321 110.91 343.186 112.045 343.186 114.315V173.335ZM343.186 252.785C343.186 255.055 344.321 256.19 346.591 256.19H395.396C406.746 256.19 415.599 253.012 421.955 246.656C428.463 240.149 431.716 231.22 431.716 219.87C431.716 208.52 428.463 199.667 421.955 193.311C415.599 186.804 406.746 183.55 395.396 183.55H346.591C344.321 183.55 343.186 184.685 343.186 186.955V252.785Z" fill="black"/>
<path d="M131.999 361.04H138.719V365H126.869V343.94H131.999V361.04ZM171.495 348.26V365H166.365V362.72C165.845 363.46 165.135 364.06 164.235 364.52C163.355 364.96 162.375 365.18 161.295 365.18C160.015 365.18 158.885 364.9 157.905 364.34C156.925 363.76 156.165 362.93 155.625 361.85C155.085 360.77 154.815 359.5 154.815 358.04V348.26H159.915V357.35C159.915 358.47 160.205 359.34 160.785 359.96C161.365 360.58 162.145 360.89 163.125 360.89C164.125 360.89 164.915 360.58 165.495 359.96C166.075 359.34 166.365 358.47 166.365 357.35V348.26H171.495ZM187.96 356.6C187.96 354.88 188.28 353.37 188.92 352.07C189.58 350.77 190.47 349.77 191.59 349.07C192.71 348.37 193.96 348.02 195.34 348.02C196.52 348.02 197.55 348.26 198.43 348.74C199.33 349.22 200.02 349.85 200.5 350.63V348.26H205.63V365H200.5V362.63C200 363.41 199.3 364.04 198.4 364.52C197.52 365 196.49 365.24 195.31 365.24C193.95 365.24 192.71 364.89 191.59 364.19C190.47 363.47 189.58 362.46 188.92 361.16C188.28 359.84 187.96 358.32 187.96 356.6ZM200.5 356.63C200.5 355.35 200.14 354.34 199.42 353.6C198.72 352.86 197.86 352.49 196.84 352.49C195.82 352.49 194.95 352.86 194.23 353.6C193.53 354.32 193.18 355.32 193.18 356.6C193.18 357.88 193.53 358.9 194.23 359.66C194.95 360.4 195.82 360.77 196.84 360.77C197.86 360.77 198.72 360.4 199.42 359.66C200.14 358.92 200.5 357.91 200.5 356.63ZM233.342 348.08C235.302 348.08 236.862 348.72 238.022 350C239.202 351.26 239.792 353 239.792 355.22V365H234.692V355.91C234.692 354.79 234.402 353.92 233.822 353.3C233.242 352.68 232.462 352.37 231.482 352.37C230.502 352.37 229.722 352.68 229.142 353.3C228.562 353.92 228.272 354.79 228.272 355.91V365H223.142V348.26H228.272V350.48C228.792 349.74 229.492 349.16 230.372 348.74C231.252 348.3 232.242 348.08 233.342 348.08ZM256.136 356.6C256.136 354.88 256.456 353.37 257.096 352.07C257.756 350.77 258.646 349.77 259.766 349.07C260.886 348.37 262.136 348.02 263.516 348.02C264.696 348.02 265.726 348.26 266.606 348.74C267.506 349.22 268.196 349.85 268.676 350.63V348.26H273.806V365H268.676V362.63C268.176 363.41 267.476 364.04 266.576 364.52C265.696 365 264.666 365.24 263.486 365.24C262.126 365.24 260.886 364.89 259.766 364.19C258.646 363.47 257.756 362.46 257.096 361.16C256.456 359.84 256.136 358.32 256.136 356.6ZM268.676 356.63C268.676 355.35 268.316 354.34 267.596 353.6C266.896 352.86 266.036 352.49 265.016 352.49C263.996 352.49 263.126 352.86 262.406 353.6C261.706 354.32 261.356 355.32 261.356 356.6C261.356 357.88 261.706 358.9 262.406 359.66C263.126 360.4 263.996 360.77 265.016 360.77C266.036 360.77 266.896 360.4 267.596 359.66C268.316 358.92 268.676 357.91 268.676 356.63ZM324.225 354.2C325.445 354.46 326.425 355.07 327.165 356.03C327.905 356.97 328.275 358.05 328.275 359.27C328.275 361.03 327.655 362.43 326.415 363.47C325.195 364.49 323.485 365 321.285 365H311.475V343.94H320.955C323.095 343.94 324.765 344.43 325.965 345.41C327.185 346.39 327.795 347.72 327.795 349.4C327.795 350.64 327.465 351.67 326.805 352.49C326.165 353.31 325.305 353.88 324.225 354.2ZM316.605 352.46H319.965C320.805 352.46 321.445 352.28 321.885 351.92C322.345 351.54 322.575 350.99 322.575 350.27C322.575 349.55 322.345 349 321.885 348.62C321.445 348.24 320.805 348.05 319.965 348.05H316.605V352.46ZM320.385 360.86C321.245 360.86 321.905 360.67 322.365 360.29C322.845 359.89 323.085 359.32 323.085 358.58C323.085 357.84 322.835 357.26 322.335 356.84C321.855 356.42 321.185 356.21 320.325 356.21H316.605V360.86H320.385ZM344.031 356.6C344.031 354.88 344.351 353.37 344.991 352.07C345.651 350.77 346.541 349.77 347.661 349.07C348.781 348.37 350.031 348.02 351.411 348.02C352.591 348.02 353.621 348.26 354.501 348.74C355.401 349.22 356.091 349.85 356.571 350.63V348.26H361.701V365H356.571V362.63C356.071 363.41 355.371 364.04 354.471 364.52C353.591 365 352.561 365.24 351.381 365.24C350.021 365.24 348.781 364.89 347.661 364.19C346.541 363.47 345.651 362.46 344.991 361.16C344.351 359.84 344.031 358.32 344.031 356.6ZM356.571 356.63C356.571 355.35 356.211 354.34 355.491 353.6C354.791 352.86 353.931 352.49 352.911 352.49C351.891 352.49 351.021 352.86 350.301 353.6C349.601 354.32 349.251 355.32 349.251 356.6C349.251 357.88 349.601 358.9 350.301 359.66C351.021 360.4 351.891 360.77 352.911 360.77C353.931 360.77 354.791 360.4 355.491 359.66C356.211 358.92 356.571 357.91 356.571 356.63ZM384.342 351.05C384.942 350.13 385.692 349.41 386.592 348.89C387.492 348.35 388.492 348.08 389.592 348.08V353.51H388.182C386.902 353.51 385.942 353.79 385.302 354.35C384.662 354.89 384.342 355.85 384.342 357.23V365H379.212V348.26H384.342V351.05ZM410.974 351.05C411.574 350.13 412.324 349.41 413.224 348.89C414.124 348.35 415.124 348.08 416.224 348.08V353.51H414.814C413.534 353.51 412.574 353.79 411.934 354.35C411.294 354.89 410.974 355.85 410.974 357.23V365H405.844V348.26H410.974V351.05ZM448.256 356.36C448.256 356.84 448.226 357.34 448.166 357.86H436.556C436.636 358.9 436.966 359.7 437.546 360.26C438.146 360.8 438.876 361.07 439.736 361.07C441.016 361.07 441.906 360.53 442.406 359.45H447.866C447.586 360.55 447.076 361.54 446.336 362.42C445.616 363.3 444.706 363.99 443.606 364.49C442.506 364.99 441.276 365.24 439.916 365.24C438.276 365.24 436.816 364.89 435.536 364.19C434.256 363.49 433.256 362.49 432.536 361.19C431.816 359.89 431.456 358.37 431.456 356.63C431.456 354.89 431.806 353.37 432.506 352.07C433.226 350.77 434.226 349.77 435.506 349.07C436.786 348.37 438.256 348.02 439.916 348.02C441.536 348.02 442.976 348.36 444.236 349.04C445.496 349.72 446.476 350.69 447.176 351.95C447.896 353.21 448.256 354.68 448.256 356.36ZM443.006 355.01C443.006 354.13 442.706 353.43 442.106 352.91C441.506 352.39 440.756 352.13 439.856 352.13C438.996 352.13 438.266 352.38 437.666 352.88C437.086 353.38 436.726 354.09 436.586 355.01H443.006ZM474.092 360.65V365H471.482C469.622 365 468.172 364.55 467.132 363.65C466.092 362.73 465.572 361.24 465.572 359.18V352.52H463.532V348.26H465.572V344.18H470.702V348.26H474.062V352.52H470.702V359.24C470.702 359.74 470.822 360.1 471.062 360.32C471.302 360.54 471.702 360.65 472.262 360.65H474.092ZM498.37 365.24C496.73 365.24 495.25 364.89 493.93 364.19C492.63 363.49 491.6 362.49 490.84 361.19C490.1 359.89 489.73 358.37 489.73 356.63C489.73 354.91 490.11 353.4 490.87 352.1C491.63 350.78 492.67 349.77 493.99 349.07C495.31 348.37 496.79 348.02 498.43 348.02C500.07 348.02 501.55 348.37 502.87 349.07C504.19 349.77 505.23 350.78 505.99 352.1C506.75 353.4 507.13 354.91 507.13 356.63C507.13 358.35 506.74 359.87 505.96 361.19C505.2 362.49 504.15 363.49 502.81 364.19C501.49 364.89 500.01 365.24 498.37 365.24ZM498.37 360.8C499.35 360.8 500.18 360.44 500.86 359.72C501.56 359 501.91 357.97 501.91 356.63C501.91 355.29 501.57 354.26 500.89 353.54C500.23 352.82 499.41 352.46 498.43 352.46C497.43 352.46 496.6 352.82 495.94 353.54C495.28 354.24 494.95 355.27 494.95 356.63C494.95 357.97 495.27 359 495.91 359.72C496.57 360.44 497.39 360.8 498.37 360.8Z" fill="black"/>
</svg>
